<?xml version="1.0" ?><svg width="40px" height="40px" viewBox="0 0 40 40" xmlns="http://www.w3.org/2000/svg"><title/><g id="mail"><path d="M31,17h-.76A8,8,0,0,0,24,14H21.74A7,7,0,0,0,23,10a3,3,0,0,0-6,0,1,1,0,0,0,2,0,1,1,0,0,1,2,0,5,5,0,0,1-2,4H16a7.88,7.88,0,0,0-6.24,3H9a4,4,0,0,0-4,4v1a4,4,0,0,0,4,4h.1A7.9,7.9,0,0,0,16,30h8a8,8,0,0,0,5.66-2.34A7.85,7.85,0,0,0,30.89,26H31a4,4,0,0,0,4-4V21A4,4,0,0,0,31,17ZM7,22V21a2,2,0,0,1,1.56-2,7.87,7.87,0,0,0-.26.77l0,.15a7.94,7.94,0,0,0-.17.8c0,.09,0,.17,0,.26A8.05,8.05,0,0,0,8,22a8.14,8.14,0,0,0,.05.91c0,.09,0,.18,0,.27s.06.42.11.63v0A2,2,0,0,1,7,22Zm17,6H16a5.94,5.94,0,0,1-5.42-3.44A5.84,5.84,0,0,1,10,22a6,6,0,0,1,6-6h8a6,6,0,0,1,6,6,6.06,6.06,0,0,1-1.76,4.24A6,6,0,0,1,24,28Zm9-6a2,2,0,0,1-1.21,1.84v0c0-.2.08-.4.11-.61s0-.19,0-.29a7.59,7.59,0,0,0,0-1.88c0-.09,0-.17,0-.26a8,8,0,0,0-.16-.79l0-.16a7.85,7.85,0,0,0-.26-.77A2,2,0,0,1,33,21ZM17,20a1,1,0,0,1-.08.38.9.9,0,0,1-.54.54.94.94,0,0,1-.76,0,.9.9,0,0,1-.54-.54.95.95,0,0,1,0-.76.91.91,0,0,1,.54-.54,1,1,0,0,1,.76,0,.9.9,0,0,1,.54.54A1,1,0,0,1,17,20Zm7.92-.38a.94.94,0,0,1,0,.76.9.9,0,0,1-.54.54.94.94,0,0,1-.76,0,.9.9,0,0,1-.54-.54.95.95,0,0,1,0-.76.91.91,0,0,1,.54-.54,1,1,0,0,1,.76,0,.9.9,0,0,1,.54.54ZM20,21a3,3,0,1,0,3,3A3,3,0,0,0,20,21Zm0,4a1,1,0,1,1,1-1A1,1,0,0,1,20,25Z"/></g></svg>