<?xml version="1.0" ?><svg width="40px" height="40px" viewBox="0 0 40 40" xmlns="http://www.w3.org/2000/svg"><title/><g id="mail"><path d="M30.5,15.64V14.58a1.22,1.22,0,0,0,0-.33,1.49,1.49,0,0,0,0-.33V13.5a7,7,0,0,0-7-7h-7a7,7,0,0,0-7,7v2.14a4,4,0,0,0-3,3.86v1a4,4,0,0,0,3,3.86V27.5a8,8,0,0,0,8,8h5a8,8,0,0,0,8-8V24.36a4,4,0,0,0,3-3.86v-1A4,4,0,0,0,30.5,15.64Zm-19-2.14a5,5,0,0,1,5-5h7a5,5,0,0,1,5,5v.06l-.62.21L27.3,14c-.29.08-.58.14-.87.2l-.54.11c-.3.05-.61.08-.91.11l-.53.06c-.3,0-.61,0-.91,0H23c-.29,0-.59,0-.88-.07l-.56-.05c-.29,0-.57-.1-.86-.16l-.56-.11c-.3-.07-.6-.17-.89-.27l-.48-.15a13.28,13.28,0,0,1-1.32-.55,1,1,0,0,0-1.34.47A13.69,13.69,0,0,1,15.32,15l-.18.28a14.09,14.09,0,0,1-.94,1.25l-.18.2a14.3,14.3,0,0,1-1,1.05l-.15.15a14.27,14.27,0,0,1-1.23,1L11.5,19V13.5Zm-3,7v-1a2,2,0,0,1,1-1.73v4.46A2,2,0,0,1,8.5,20.5Zm20,7a6,6,0,0,1-6,6h-5a6,6,0,0,1-6-6V21.36l.24-.15.43-.27.51-.34.41-.29.49-.38.38-.32.47-.43.35-.33.45-.47.31-.34c.15-.17.29-.35.43-.53l.27-.33c.15-.2.3-.41.44-.62l.2-.28c.2-.31.4-.63.58-.95.46.19.92.35,1.4.49l.46.12c.33.09.65.17,1,.24l.53.09c.31.05.63.1.95.14l.54,0c.32,0,.65,0,1,0h.51c.34,0,.68,0,1,0l.47,0c.35,0,.7-.09,1-.15l.44-.08c.34-.07.67-.15,1-.25l.48-.13.24-.07V27.5Zm3-7a2,2,0,0,1-1,1.73V17.77a2,2,0,0,1,1,1.73ZM15,23V21a1,1,0,0,1,2,0v2a1,1,0,0,1-2,0Zm8,0V21a1,1,0,0,1,2,0v2a1,1,0,0,1-2,0Zm2.89,5.55A1,1,0,0,1,25,30H15a1,1,0,0,1-.89-1.45l1-2A1,1,0,0,1,16,26h8a1,1,0,0,1,.89.55Z"/></g></svg>