<?xml version="1.0" ?><svg width="40px" height="40px" viewBox="0 0 40 40" xmlns="http://www.w3.org/2000/svg"><title/><g id="mail"><path d="M16,26a1,1,0,0,1-1-1V23a1,1,0,0,1,2,0v2A1,1,0,0,1,16,26Zm8-4a1,1,0,0,0-1,1v2a1,1,0,0,0,2,0V23A1,1,0,0,0,24,22Zm0,6v1a4,4,0,0,1-8,0V28a1,1,0,0,1,1-1h6A1,1,0,0,1,24,28Zm-2,1H18a2,2,0,0,0,4,0ZM35,11.32V16a1,1,0,0,1-2,0V11.32A6.21,6.21,0,0,0,27.16,5,6,6,0,0,0,21,10.5H23.5a7,7,0,0,1,7,7v.14a4,4,0,0,1,3,3.86v1a4,4,0,0,1-3,3.86V29.5a7.93,7.93,0,0,1-7.34,8,6.25,6.25,0,0,1-.66,0h-5a8,8,0,0,1-8-8V26.36a4,4,0,0,1-3-3.86v-1a4,4,0,0,1,3-3.86V17.5A7,7,0,0,1,13,11.44a6.88,6.88,0,0,1,3.5-.94H19A6,6,0,0,0,12.84,5,6.21,6.21,0,0,0,7,11.32V16a1,1,0,0,1-2,0V11.32A8.22,8.22,0,0,1,12.79,3a7.92,7.92,0,0,1,5.79,2.27A8,8,0,0,1,20,7.12a8,8,0,0,1,1.42-1.85A7.93,7.93,0,0,1,27.21,3,8.22,8.22,0,0,1,35,11.32ZM9.5,24.23V19.77a2,2,0,0,0-1,1.73v1A2,2,0,0,0,9.5,24.23Zm19,1.27V20.13a11.62,11.62,0,0,1-1.2.4l-.34.09a12.24,12.24,0,0,1-1.2.24l-.45.05c-.39,0-.79.07-1.18.08H24l-.29,0-.83,0-.37,0c-.38,0-.76-.1-1.13-.19a11.8,11.8,0,0,1-2.27-.83q-.36-.16-.74-.3c-.28-.1-.57-.19-.87-.27l-.29-.06-.6-.12-.35,0L15.69,19h-.93l-.34,0-.59.05-.32,0-.61.11-.3.07-.59.17-.32.1-.18.07V29.5a6,6,0,0,0,6,6h5l.48,0a6,6,0,0,0,5.52-6Zm2-5.73v4.46a2,2,0,0,0,1-1.73v-1A2,2,0,0,0,30.5,19.77Zm-7-7.27h-7a4.83,4.83,0,0,0-2.49.67A5,5,0,0,0,11.5,17.5v0a11.86,11.86,0,0,1,3-.5H15l.53,0h.28c.29,0,.57,0,.85.09l.26,0c.29,0,.58.11.86.17l.22,0c.35.09.7.2,1,.32s.6.23.89.36a10.12,10.12,0,0,0,1.88.7c.29.06.58.11.88.15l.21,0,.69.05h.91l.26,0,.65-.07.26,0,.64-.13.25-.06.62-.18.26-.09.57-.23L28.3,18l.2-.1V17.5A5,5,0,0,0,23.5,12.5Z"/></g></svg>