<?xml version="1.0" ?><svg width="40px" height="40px" viewBox="0 0 40 40" xmlns="http://www.w3.org/2000/svg"><title/><g id="mail"><path d="M11.75,12.42a3,3,0,1,0-3.51,0A4,4,0,0,0,6,16V28a1,1,0,0,0,1,1v5a1,1,0,0,0,2,0V29h2v5a1,1,0,0,0,2,0V29a1,1,0,0,0,1-1V16A4,4,0,0,0,11.75,12.42ZM10,9a1,1,0,1,1-1,1A1,1,0,0,1,10,9Zm0,5a2,2,0,0,1,2,2v6H8V16A2,2,0,0,1,10,14Zm2,13H8V24h4ZM31.75,12.42a3,3,0,1,0-3.51,0A4,4,0,0,0,26,16V34a1,1,0,0,0,1,1h6a1,1,0,0,0,1-1V16A4,4,0,0,0,31.75,12.42ZM30,9a1,1,0,1,1-1,1A1,1,0,0,1,30,9Zm-2,7a2,2,0,0,1,4,0v7H28Zm4,17H31V28a1,1,0,0,0-2,0v5H28V25h4ZM21.75,18.42a3,3,0,1,0-3.51,0A4,4,0,0,0,16,22v6a1,1,0,0,0,1,1v5a1,1,0,0,0,2,0V29h2v5a1,1,0,0,0,2,0V29a1,1,0,0,0,1-1V22A4,4,0,0,0,21.75,18.42ZM20,15a1,1,0,1,1-1,1A1,1,0,0,1,20,15Zm0,5a2,2,0,0,1,2,2v2H18V22A2,2,0,0,1,20,20Zm2,7H18V26h4Z"/></g></svg>