<?xml version="1.0" ?><svg width="40px" height="40px" viewBox="0 0 40 40" xmlns="http://www.w3.org/2000/svg"><title/><g id="mail"><path d="M15.71,19.29a1,1,0,1,1-1.42,0,1,1,0,0,1,.33-.21A1,1,0,0,1,15.71,19.29Zm8.58,0A1,1,0,0,0,24,20a.83.83,0,0,0,.08.38,1.15,1.15,0,0,0,.21.33,1,1,0,0,0,1.42,0,1.15,1.15,0,0,0,.21-.33A1,1,0,0,0,26,20a1,1,0,0,0-1.71-.71Zm-.75,8.82a7.82,7.82,0,0,1-7.08,0,1,1,0,0,0-.91,1.78,9.83,9.83,0,0,0,8.9,0,1,1,0,0,0-.91-1.78Zm10-8.61v1a4,4,0,0,1-3,3.86V27.5a8,8,0,0,1-8,8h-5a8,8,0,0,1-8-8V24.36a4,4,0,0,1-3-3.86v-1a4,4,0,0,1,3-3.86V13.5a7,7,0,0,1,6.5-7V6a4,4,0,0,1,8,0v.53a7,7,0,0,1,6.5,7v2.14A4,4,0,0,1,33.5,19.5Zm-5-3.06V14.91A11.93,11.93,0,0,1,20,9.63a11.93,11.93,0,0,1-8.5,5.27v1.53A5,5,0,0,1,19.9,19h.2a5,5,0,0,1,8.4-2.56ZM25,17a3,3,0,1,0,3,3A3,3,0,0,0,25,17ZM15,17a3,3,0,1,0,3,3A3,3,0,0,0,15,17Zm-3.42-4.32c0,.07,0,.13,0,.2A9.94,9.94,0,0,0,18.36,8.5H16.5a5,5,0,0,0-1,.1l-.3.09a5,5,0,0,0-.6.19c-.11,0-.22.11-.33.16a5,5,0,0,0-.5.27c-.11.07-.21.15-.31.23a5,5,0,0,0-.42.34c-.1.09-.18.19-.27.29a5,5,0,0,0-.34.41c-.08.11-.15.22-.22.34a5,5,0,0,0-.25.46c-.06.12-.11.25-.16.38a4.94,4.94,0,0,0-.16.5C11.64,12.4,11.61,12.54,11.58,12.68ZM21.64,8.5a9.94,9.94,0,0,0,6.79,4.38c0-.07,0-.14,0-.2s-.06-.28-.09-.42a4.94,4.94,0,0,0-.16-.5c0-.13-.1-.26-.16-.38a5,5,0,0,0-.25-.46c-.07-.12-.14-.23-.22-.34a5,5,0,0,0-.34-.41c-.09-.1-.18-.2-.27-.29a5,5,0,0,0-.42-.34c-.1-.08-.2-.16-.31-.23a5,5,0,0,0-.5-.27c-.11-.05-.21-.12-.33-.16a5,5,0,0,0-.6-.19l-.3-.09a5,5,0,0,0-1-.1ZM18,6v.5h4V6a2,2,0,0,0-4,0ZM9.5,22.23V17.77a2,2,0,0,0-1,1.73v1A2,2,0,0,0,9.5,22.23Zm19,5.27V23.56A5,5,0,0,1,20.1,21h-.2a5,5,0,0,1-8.4,2.56V27.5a6,6,0,0,0,6,6h5A6,6,0,0,0,28.5,27.5Zm3-8a2,2,0,0,0-1-1.73v4.46a2,2,0,0,0,1-1.73Z"/></g></svg>