<?xml version="1.0" ?><svg width="40px" height="40px" viewBox="0 0 40 40" xmlns="http://www.w3.org/2000/svg"><title/><g id="mail"><path d="M15,20V18a1,1,0,0,1,2,0v2a1,1,0,0,1-2,0Zm8-2v2a1,1,0,0,0,2,0V18a1,1,0,0,0-2,0Zm4,10.8a1,1,0,0,1-1.3,1.15L20,28.05l-5.68,1.89A1,1,0,0,1,13,28.8l.5-2.5a1,1,0,0,1,.27-.51l2.5-2.5A1,1,0,0,1,17,23h6a1,1,0,0,1,.71.29l2.5,2.5a1,1,0,0,1,.27.51Zm-2.3-1.3-.1-.51-2-2H17.41l-2,2-.1.51,4.37-1.46h.11L20,26l.21,0h.11ZM17,14h6a1,1,0,0,0,0-2H17a1,1,0,0,0,0,2Zm16.5,5.5v1a4,4,0,0,1-3,3.86V27.5a8,8,0,0,1-8,8h-5a8,8,0,0,1-8-8V24.36a4,4,0,0,1-3-3.86v-1a4,4,0,0,1,3-3.87,10,10,0,0,1,10-9.13h1a10,10,0,0,1,10,9.13A4,4,0,0,1,33.5,19.5Zm-24,2.73V17.77a2,2,0,0,0-1,1.73v1A2,2,0,0,0,9.5,22.23Zm19,1.27v-7a8,8,0,0,0-8-8h-1a8,8,0,0,0-8,8v11a6,6,0,0,0,6,6h5a6,6,0,0,0,6-6Zm3-4a2,2,0,0,0-1-1.73v4.46a2,2,0,0,0,1-1.73Z"/></g></svg>