<?xml version="1.0" ?><svg width="40px" height="40px" viewBox="0 0 40 40" xmlns="http://www.w3.org/2000/svg"><title/><g id="mail"><path d="M15.22,18.79a5,5,0,1,0-6.44,0A7,7,0,0,0,5,25v6a1,1,0,0,0,1,1H18a1,1,0,0,0,1-1V25A7,7,0,0,0,15.22,18.79ZM9,15a3,3,0,1,1,3,3A3,3,0,0,1,9,15Zm8,15H7V25a5,5,0,0,1,10,0Zm16-7.94A6.82,6.82,0,0,0,31.59,21H33a1,1,0,0,0,1-1V16a6,6,0,0,0-12,0v4a1,1,0,0,0,1,1h1.44A7,7,0,0,0,21,27v4a1,1,0,0,0,1,1H34a1,1,0,0,0,1-1V27A6.91,6.91,0,0,0,33,22.06ZM27,20V17.25a7.37,7.37,0,0,0,2,0V20a1,1,0,0,1-.19.59l0,0a1,1,0,0,1-1.57,0l0,0A1,1,0,0,1,27,20Zm-3-4a4,4,0,1,1,8,0v3H31V16a1,1,0,0,0-.07-.35l0-.06a1,1,0,0,0-.18-.27l0,0-.09-.08-.08,0a1,1,0,0,0-.26-.11l-.16,0L30,15H26l-.09,0-.16,0a1,1,0,0,0-.26.11l-.08,0-.09.08,0,0a1,1,0,0,0-.18.27l0,.06A1,1,0,0,0,25,16v3H24Zm9,14H23V27a5,5,0,0,1,3.15-4.64,3,3,0,0,0,.87.46h0a2.92,2.92,0,0,0,2.83-.46,4.85,4.85,0,0,1,1.68,1.11A4.93,4.93,0,0,1,33,27Z"/></g></svg>