<?xml version="1.0" ?><svg width="40px" height="40px" viewBox="0 0 40 40" xmlns="http://www.w3.org/2000/svg"><title/><g id="mail"><path d="M17,23a1,1,0,0,1-2,0V21a1,1,0,0,1,2,0Zm7-3a1,1,0,0,0-1,1v2a1,1,0,0,0,2,0V21A1,1,0,0,0,24,20Zm12-5V31a1,1,0,0,1-1,1H29.09a8,8,0,0,1-6.59,3.5h-5A8,8,0,0,1,10.91,32H5a1,1,0,0,1-1-1V15A11,11,0,0,1,15,4H25A11,11,0,0,1,36,15ZM27.69,30.5a5.88,5.88,0,0,0,.81-3V18.2a13.23,13.23,0,0,1-10.57-.69,13,13,0,0,1-3.26-2.45,4,4,0,0,0-3.17.81V27.5a5.88,5.88,0,0,0,.8,3,6,6,0,0,0,5.2,3h5A6,6,0,0,0,27.69,30.5ZM34,15a9,9,0,0,0-9-9H15a9,9,0,0,0-9,9V30H9.9c0-.06,0-.12,0-.18A8,8,0,0,1,9.67,29c0-.12-.05-.24-.07-.36A8,8,0,0,1,9.5,27.5V15.42a1,1,0,0,1,.3-.71,6,6,0,0,1,5.61-1.54,1,1,0,0,1,.5.3,11,11,0,0,0,3,2.27A11.05,11.05,0,0,0,24,17a10.9,10.9,0,0,0,5-1.22,1,1,0,0,1,1.46.89V27.5a8,8,0,0,1-.09,1.17c0,.12,0,.24-.07.37a8,8,0,0,1-.19.78c0,.06,0,.12,0,.18H34ZM22,27H18a1,1,0,0,0-1,1,3,3,0,0,0,6,0A1,1,0,0,0,22,27Z"/></g></svg>