<?xml version="1.0" ?><svg width="40px" height="40px" viewBox="0 0 40 40" xmlns="http://www.w3.org/2000/svg"><title/><g id="mail"><path d="M16,21a1,1,0,0,1-1-1V18a1,1,0,0,1,2,0v2A1,1,0,0,1,16,21Zm8-4a1,1,0,0,0-1,1v2a1,1,0,0,0,2,0V18A1,1,0,0,0,24,17Zm0,8v1a4,4,0,0,1-8,0V25a1,1,0,0,1,1-1h6A1,1,0,0,1,24,25Zm-2,1H18a2,2,0,0,0,4,0Zm11.5-6.5v1a4,4,0,0,1-3,3.86V27.5a8,8,0,0,1-8,8h-5a8,8,0,0,1-8-8V24.36a4,4,0,0,1-3-3.86v-1a4,4,0,0,1,3-3.86V13.5a7,7,0,0,1,7-7h7a7,7,0,0,1,7,7v2.14A4,4,0,0,1,33.5,19.5ZM11.53,13l.17,0a19.5,19.5,0,0,0,6.35-2.22,1,1,0,0,1,.31-.11h.19l.08,0a1,1,0,0,1,.29.07l.12,0a1,1,0,0,1,.33.28,3.43,3.43,0,0,0,.5.54l.22.17a5.67,5.67,0,0,0,.49.36l.35.19c.18.1.36.21.56.31l.45.19c.21.09.42.18.65.26l.55.17c.24.08.48.15.74.22l.64.14.83.17.72.1.91.11.8,0,.73,0V13.5a5,5,0,0,0-5-5h-7A5,5,0,0,0,11.53,13Zm-2,9.27V17.77a2,2,0,0,0-1,1.73v1A2,2,0,0,0,9.5,22.23Zm19,1.27V16l-.64,0-.77,0-.86-.09-.73-.09-.82-.14L24,15.48l-.78-.2-.62-.17c-.25-.08-.49-.17-.73-.25l-.55-.2c-.24-.1-.46-.21-.68-.31l-.46-.22c-.24-.13-.44-.26-.66-.4l-.34-.21a7,7,0,0,1-.83-.68A22,22,0,0,1,12,14.9L11.5,15V27.5a6,6,0,0,0,6,6h5a6,6,0,0,0,6-6Zm3-4a2,2,0,0,0-1-1.73v4.46a2,2,0,0,0,1-1.73Z"/></g></svg>